<?xml version="1.0" standalone="no"?>
<!DOCTYPE svg PUBLIC "-//W3C//DTD SVG 20010904//EN"
 "http://www.w3.org/TR/2001/REC-SVG-20010904/DTD/svg10.dtd">
<svg version="1.0" xmlns="http://www.w3.org/2000/svg"
 width="512.000000pt" height="512.000000pt" viewBox="0 0 512.000000 512.000000"
 preserveAspectRatio="xMidYMid meet">
<metadata>
Created by potrace 1.11, written by Peter Selinger 2001-2013
</metadata>
<g transform="translate(0.000000,512.000000) scale(0.100000,-0.100000)"
fill="#000000" stroke="none">
<path d="M2379 5116 c-2 -2 -40 -6 -83 -10 -44 -4 -82 -9 -85 -11 -4 -2 -34
-7 -66 -10 -109 -13 -387 -87 -490 -130 -16 -7 -55 -23 -85 -35 -548 -222
-1030 -674 -1301 -1219 -65 -132 -131 -293 -144 -351 -1 -8 -12 -44 -24 -79
-34 -105 -72 -294 -88 -451 -10 -85 -10 -415 -1 -510 22 -234 98 -530 193
-755 28 -66 132 -272 153 -302 10 -15 39 -59 63 -98 180 -286 479 -578 788
-769 203 -125 499 -254 696 -301 70 -17 206 -45 240 -50 22 -4 54 -9 70 -11
17 -3 44 -8 60 -11 17 -3 664 -7 1438 -10 l1408 -4 -4 1408 c-1 774 -6 1417
-9 1428 -3 11 -9 45 -12 75 -51 405 -237 855 -495 1195 -25 33 -50 65 -56 71
-5 6 -30 35 -55 65 -241 285 -583 528 -985 699 -142 61 -419 133 -595 156 -25
3 -56 8 -70 10 -29 6 -456 15 -461 10z"/>
</g>
</svg>
